<svg width="137" height="32" viewBox="0 0 137 32" fill="none" xmlns="http://www.w3.org/2000/svg">
<path d="M33.2834 8.57399H34.9431V20.2614H39.9224V21.9406H33.2834V8.57399ZM45.0925 8.57399C46.0773 8.57399 47.04 8.86945 47.8588 9.423C48.6776 9.97654 49.3158 10.7633 49.6927 11.6838C50.0696 12.6043 50.1682 13.6173 49.976 14.5945C49.7839 15.5717 49.3097 16.4693 48.6133 17.1738C47.917 17.8784 47.0298 18.3582 46.0639 18.5525C45.098 18.7469 44.0968 18.6471 43.187 18.2659C42.2772 17.8846 41.4995 17.2389 40.9524 16.4104C40.4053 15.582 40.1132 14.608 40.1132 13.6117C40.1132 12.9501 40.242 12.295 40.4923 11.6838C40.7425 11.0726 41.1093 10.5173 41.5716 10.0495C42.034 9.5817 42.5829 9.21063 43.187 8.95746C43.7911 8.7043 44.4386 8.57399 45.0925 8.57399ZM45.0925 16.9701C45.749 16.9701 46.3908 16.7731 46.9367 16.4041C47.4826 16.0351 47.908 15.5106 48.1593 14.8969C48.4105 14.2832 48.4763 13.6079 48.3482 12.9565C48.2201 12.305 47.9039 11.7066 47.4397 11.2369C46.9755 10.7672 46.384 10.4473 45.7401 10.3177C45.0962 10.1882 44.4287 10.2547 43.8222 10.5089C43.2156 10.7631 42.6972 11.1935 42.3324 11.7458C41.9677 12.2981 41.773 12.9474 41.773 13.6117C41.7774 14.4995 42.129 15.3494 42.7511 15.9756C43.3731 16.6018 44.215 16.9533 45.0925 16.9533V16.9701ZM41.773 20.2782H48.412V21.9574H41.773V20.2782ZM63.0177 21.9574H61.358V20.7568C60.2876 21.5148 59.0131 21.9221 57.7065 21.9238C56.5924 21.9314 55.4944 21.6551 54.5135 21.1205C53.5326 20.5859 52.7005 19.8102 52.0938 18.8648C51.4871 17.9194 51.1253 16.8347 51.0418 15.7107C50.9583 14.5866 51.1557 13.4594 51.6159 12.4328C52.076 11.4063 52.7841 10.5134 53.675 9.83641C54.5658 9.15945 55.6107 8.7202 56.7134 8.55912C57.8161 8.39804 58.9411 8.52032 59.9848 8.91468C61.0285 9.30904 61.9574 9.96281 62.6858 10.8158L61.4659 11.9156C60.9119 11.289 60.2117 10.8126 59.4291 10.5298C58.6465 10.2471 57.8064 10.167 56.9854 10.2969C56.1643 10.4268 55.3885 10.7625 54.7286 11.2734C54.0686 11.7844 53.5456 12.4543 53.2071 13.2221C52.8686 13.99 52.7255 14.8313 52.7907 15.6695C52.8559 16.5076 53.1274 17.3159 53.5805 18.0207C54.0336 18.7255 54.6538 19.3044 55.3846 19.7045C56.1154 20.1047 56.9336 20.3135 57.7646 20.3118C58.4543 20.3132 59.1361 20.1639 59.7635 19.8741C60.3908 19.5843 60.9489 19.1608 61.3995 18.6325H56.9182V16.9533H63.0343L63.0177 21.9574ZM69.1256 8.60758C70.1104 8.60758 71.0731 8.90303 71.8919 9.45658C72.7107 10.0101 73.3489 10.7969 73.7258 11.7174C74.1027 12.6379 74.2013 13.6508 74.0091 14.628C73.817 15.6053 73.3428 16.5029 72.6464 17.2074C71.9501 17.9119 71.0629 18.3917 70.097 18.5861C69.1311 18.7805 68.13 18.6807 67.2201 18.2994C66.3103 17.9182 65.5326 17.2725 64.9855 16.444C64.4384 15.6156 64.1463 14.6416 64.1463 13.6452C64.142 12.9795 64.2681 12.3194 64.5174 11.7032C64.7667 11.087 65.1342 10.527 65.5988 10.0554C66.0634 9.5838 66.6157 9.21007 67.2239 8.9558C67.8321 8.70153 68.4841 8.57176 69.1422 8.57399L69.1256 8.60758ZM69.1256 17.0037C69.7821 17.0037 70.4239 16.8067 70.9698 16.4377C71.5157 16.0687 71.9412 15.5441 72.1924 14.9305C72.4436 14.3168 72.5094 13.6415 72.3813 12.99C72.2532 12.3386 71.9371 11.7402 71.4728 11.2705C71.0086 10.8008 70.4171 10.4809 69.7732 10.3513C69.1293 10.2217 68.4618 10.2883 67.8553 10.5424C67.2487 10.7966 66.7303 11.2271 66.3655 11.7794C66.0008 12.3317 65.8061 12.981 65.8061 13.6452C65.8192 14.5301 66.177 15.374 66.8017 15.9934C67.4264 16.6129 68.2675 16.9578 69.1422 16.9533L69.1256 17.0037ZM65.8061 20.3118H72.4451V21.991H65.8061V20.3118ZM75.8725 8.57399H77.5322V21.9238H75.8725V8.57399ZM79.8309 8.57399H81.4907C81.5762 8.56482 81.6624 8.56482 81.7479 8.57399C82.4431 8.4977 83.1463 8.57037 83.8118 8.78728C84.4773 9.00419 85.0902 9.36047 85.6105 9.83293C86.1309 10.3054 86.5471 10.8834 86.832 11.5294C87.117 12.1754 87.2642 12.8749 87.2642 13.5823C87.2642 14.2897 87.117 14.9891 86.832 15.6351C86.5471 16.2811 86.1309 16.8592 85.6105 17.3316C85.0902 17.8041 84.4773 18.1604 83.8118 18.3773C83.1463 18.5942 82.4431 18.6669 81.7479 18.5906H81.4907V21.949H79.8309V8.57399ZM81.4907 10.2532V16.8945H81.7479C82.2167 16.9577 82.6935 16.9188 83.1462 16.7804C83.5989 16.642 84.0172 16.4074 84.373 16.0921C84.7288 15.7769 85.0139 15.3884 85.2092 14.9527C85.4046 14.5169 85.5056 14.044 85.5056 13.5655C85.5056 13.087 85.4046 12.614 85.2092 12.1783C85.0139 11.7425 84.7288 11.354 84.373 11.0388C84.0172 10.7236 83.5989 10.489 83.1462 10.3506C82.6935 10.2122 82.2167 10.1733 81.7479 10.2364C81.6575 10.2459 81.5685 10.2657 81.4824 10.2952L81.4907 10.2532ZM93.4492 9.53955L92.2209 10.5219C92.009 10.2979 91.7384 10.1397 91.4407 10.066C91.143 9.99226 90.8307 10.006 90.5405 10.1057C90.2503 10.2053 89.9942 10.3867 89.8024 10.6285C89.6105 10.8703 89.4909 11.1624 89.4575 11.4707V11.605C89.4575 12.3438 89.9637 12.8392 90.9512 12.9064C94.7521 13.1415 96.4948 14.9466 96.4948 17.3311V17.4823C96.3967 18.426 96.0327 19.3214 95.4461 20.0619C94.8595 20.8024 94.0751 21.3569 93.1861 21.6593C92.297 21.9618 91.3408 21.9996 90.4312 21.7681C89.5216 21.5367 88.6968 21.0457 88.055 20.3537L89.3247 19.363C89.6202 19.6835 89.9812 19.935 90.3824 20.1003C90.7836 20.2656 91.2156 20.3406 91.6483 20.3202C92.4476 20.3628 93.2323 20.0913 93.8385 19.5625C94.4447 19.0337 94.8255 18.2884 94.9014 17.4823V17.3647C94.9014 15.123 92.7272 14.7116 90.8434 14.5268C89.1006 14.3589 87.8475 13.259 87.8475 11.6722V11.605C87.909 10.7788 88.2816 10.0081 88.8885 9.45186C89.4954 8.89564 90.2903 8.59642 91.1089 8.61597C91.5427 8.60301 91.9744 8.68225 92.3761 8.84857C92.7778 9.01488 93.1405 9.26458 93.4409 9.58153L93.4492 9.53955ZM102.993 20.2194C105.059 20.2194 106.694 17.9608 106.694 15.1817V8.46484H108.354V15.1817C108.354 18.876 105.964 21.8566 103.026 21.8566C100.088 21.8566 97.6981 18.876 97.6981 15.1817V8.46484H99.3578V15.1817C99.2915 18.0028 100.926 20.2614 102.984 20.2614L102.993 20.2194ZM121.092 21.8986H119.432V13.5865L115.607 18.6241L111.781 13.5865V21.9238H110.121V8.57399L115.598 15.8702L121.076 8.57399L121.092 21.8986Z" fill="black"/>
<path d="M25.3171 6.56748C25.3171 5.35611 24.8415 4.19435 23.9948 3.33778C23.1482 2.48121 21.9999 2 20.8026 2C19.6053 2 18.457 2.48121 17.6104 3.33778C16.7637 4.19435 16.2881 5.35611 16.2881 6.56748V20.3791L20.0059 23.0742V29.64H21.5993V23.0742L25.3171 20.3791V6.56748ZM23.7237 14.2919L21.5993 16.4413V14.4262L23.7237 12.2768V14.2919ZM17.9146 12.2768L20.0391 14.4262V16.4413L17.9146 14.2919V12.2768ZM23.7237 9.9931L20.8026 12.9485L17.8814 9.92593V7.91086L20.8026 10.8663L23.7237 7.91086V9.9931ZM20.8026 3.61205C21.445 3.61493 22.0688 3.8308 22.5785 4.22659C23.0881 4.62238 23.4554 5.17628 23.6242 5.80344L20.8026 8.64972L17.981 5.80344C18.1436 5.17004 18.5083 4.60863 19.0185 4.20634C19.5286 3.80404 20.1558 3.58333 20.8026 3.57847V3.61205ZM17.8814 19.5647V16.5421L20.0059 18.6915V21.0928L17.8814 19.5647ZM21.5993 21.1012V18.6915L23.7237 16.5421V19.5563L21.5993 21.1012Z" fill="black"/>
</svg>
