<svg width="137" height="32" viewBox="0 0 137 32" fill="none" xmlns="http://www.w3.org/2000/svg">
<path d="M43.041 9.78752H46.0629V22.1496H43.041V9.78752ZM47.2616 17.482C47.2616 14.4246 49.115 12.6003 51.9758 12.6003C54.8366 12.6003 56.69 14.4246 56.69 17.482C56.69 20.5393 54.8769 22.3738 51.9758 22.3738C49.0748 22.3738 47.2616 20.5903 47.2616 17.482ZM53.658 17.482C53.658 15.8004 53.0033 14.8118 51.9758 14.8118C50.9483 14.8118 50.3037 15.831 50.3037 17.482C50.3037 19.1329 50.9383 20.1317 51.9758 20.1317C53.0133 20.1317 53.658 19.1941 53.658 17.4921V17.482ZM57.8283 22.7509H60.7293C60.8674 23.0612 61.1008 23.3181 61.3948 23.4834C61.6889 23.6486 62.0278 23.7134 62.3612 23.6681C63.5095 23.6681 64.1139 23.0362 64.1139 22.119V20.4069H64.0534C63.8127 20.9316 63.422 21.3713 62.9318 21.6692C62.4416 21.9671 61.8745 22.1096 61.3035 22.0782C59.0975 22.0782 57.6369 20.3763 57.6369 17.4514C57.6369 14.5265 59.027 12.6819 61.3438 12.6819C61.9326 12.6585 62.5145 12.8178 63.0114 13.1384C63.5083 13.4589 63.8965 13.9255 64.124 14.4755V12.7736H67.1459V22.0477C67.1459 24.2795 65.2018 25.6656 62.3309 25.6656C59.6616 25.6656 57.9995 24.4528 57.8283 22.761V22.7509ZM64.124 17.4718C64.124 15.9838 63.4491 15.0462 62.3813 15.0462C61.3136 15.0462 60.6588 15.9736 60.6588 17.4718C60.6588 18.9699 61.3035 19.8158 62.3813 19.8158C63.4591 19.8158 64.124 18.9903 64.124 17.482V17.4718ZM68.2841 17.4718C68.2841 14.4144 70.1376 12.5901 72.9983 12.5901C75.8591 12.5901 77.7226 14.4144 77.7226 17.4718C77.7226 20.5292 75.9095 22.3636 72.9983 22.3636C70.0872 22.3636 68.2841 20.5903 68.2841 17.482V17.4718ZM74.6805 17.4718C74.6805 15.7902 74.0258 14.8016 72.9983 14.8016C71.9709 14.8016 71.3766 15.831 71.3766 17.4921C71.3766 19.1533 72.0112 20.1419 73.0386 20.1419C74.0661 20.1419 74.6805 19.1941 74.6805 17.4921V17.4718ZM78.871 10.5519C78.863 10.2432 78.9459 9.93907 79.109 9.67808C79.2721 9.41708 79.5082 9.21097 79.7872 9.08586C80.0662 8.96075 80.3757 8.92228 80.6764 8.97533C80.9771 9.02838 81.2554 9.17056 81.4761 9.38384C81.6968 9.59712 81.85 9.87191 81.9161 10.1734C81.9823 10.4748 81.9585 10.7893 81.8478 11.0771C81.7371 11.3648 81.5444 11.6129 81.2942 11.7897C81.044 11.9665 80.7475 12.0642 80.4424 12.0704C80.2401 12.0844 80.0371 12.056 79.8462 11.9869C79.6553 11.9178 79.4805 11.8095 79.333 11.6688C79.1854 11.5282 79.0682 11.3581 78.9887 11.1694C78.9092 10.9807 78.8691 10.7774 78.871 10.5723V10.5519ZM78.871 12.794H81.8929V22.1496H78.871V12.794ZM92.8625 17.4718C92.8625 20.5292 91.5228 22.2719 89.2261 22.2719C88.6372 22.3101 88.0509 22.1645 87.5464 21.8546C87.042 21.5447 86.6438 21.0856 86.4056 20.5393H86.3452V25.1458H83.3233V12.7736H86.3452V14.4449H86.4056C86.6327 13.8896 87.0233 13.4186 87.5244 13.0958C88.0254 12.7731 88.6126 12.6143 89.2059 12.6411C91.5228 12.6819 92.9028 14.4348 92.9028 17.4921L92.8625 17.4718ZM89.8406 17.4718C89.8406 15.9838 89.1657 15.036 88.108 15.036C87.0503 15.036 86.3754 15.994 86.3653 17.4718C86.3553 18.9495 87.0503 19.8973 88.108 19.8973C89.1657 19.8973 89.8406 18.9699 89.8406 17.4921V17.4718ZM98.0501 12.5799C100.558 12.5799 102.079 13.7825 102.15 15.7087H99.3999C99.3999 15.0462 98.856 14.6284 98.0199 14.6284C97.1838 14.6284 96.8111 14.9545 96.8111 15.4335C96.8111 15.9125 97.1435 16.0654 97.8184 16.208L99.7525 16.6055C101.596 17.003 102.382 17.7571 102.382 19.1737C102.382 21.1101 100.639 22.3534 98.0703 22.3534C95.5016 22.3534 93.8194 21.1101 93.6885 19.2043H96.5996C96.6903 19.8973 97.2342 20.3049 98.1206 20.3049C99.0071 20.3049 99.41 20.0094 99.41 19.5202C99.41 19.031 99.1279 18.9291 98.4027 18.7762L96.66 18.3992C94.8569 18.0221 93.9101 17.0539 93.9101 15.6271C93.9302 13.7927 95.552 12.6003 98.0501 12.6003V12.5799ZM112.465 22.1292H109.554V20.3865H109.493C109.333 20.9716 108.98 21.4837 108.493 21.8378C108.005 22.1919 107.413 22.3666 106.814 22.333C106.355 22.3594 105.895 22.2858 105.467 22.1172C105.038 21.9485 104.65 21.6888 104.329 21.3555C104.009 21.0222 103.762 20.6231 103.607 20.1851C103.452 19.7472 103.391 19.2807 103.429 18.817V12.7736H106.451V18.1138C106.451 19.2247 107.015 19.8158 107.952 19.8158C108.172 19.8162 108.389 19.7692 108.589 19.6777C108.789 19.5863 108.968 19.4526 109.113 19.2857C109.258 19.1187 109.366 18.9223 109.43 18.7097C109.494 18.497 109.512 18.273 109.483 18.0527V12.7736H112.505L112.465 22.1292ZM113.925 12.7736H116.847V14.5774H116.907C117.067 14.0001 117.412 13.4928 117.888 13.1351C118.364 12.7773 118.943 12.5892 119.536 12.6003C120.139 12.5515 120.738 12.734 121.214 13.1117C121.69 13.4894 122.008 14.0345 122.105 14.6386H122.165C122.348 14.0281 122.726 13.4964 123.24 13.1274C123.755 12.7584 124.376 12.5729 125.006 12.6003C125.417 12.5864 125.826 12.66 126.207 12.8165C126.588 12.973 126.932 13.2089 127.217 13.5088C127.502 13.8087 127.722 14.1659 127.861 14.5572C128.001 14.9484 128.058 15.3651 128.028 15.78V22.1496H125.006V16.5953C125.006 15.5762 124.552 15.1074 123.706 15.1074C123.518 15.1058 123.331 15.1451 123.158 15.2228C122.986 15.3004 122.832 15.4146 122.707 15.5575C122.582 15.7005 122.489 15.8689 122.433 16.0514C122.378 16.234 122.362 16.4264 122.387 16.6157V22.1496H119.516V16.5545C119.516 15.6169 119.063 15.1074 118.237 15.1074C118.046 15.1074 117.857 15.1484 117.683 15.2277C117.509 15.3069 117.354 15.4225 117.227 15.567C117.1 15.7115 117.006 15.8814 116.949 16.0657C116.892 16.25 116.874 16.4444 116.897 16.6361V22.1496H113.875L113.925 12.7736Z" fill="black"/>
<path d="M34.5894 10.3479C34.0768 9.16197 33.3983 8.0568 32.5748 7.06628C31.3574 5.55831 29.8382 4.32828 28.1171 3.45714C26.396 2.586 24.5121 2.0935 22.5893 2.01207C20.6666 1.93063 18.7486 2.2621 16.9615 2.98465C15.1745 3.70721 13.559 4.80447 12.2213 6.20423C10.8836 7.60398 9.8541 9.27448 9.2005 11.1058C8.54691 12.9371 8.28406 14.8877 8.42925 16.8292C8.57445 18.7706 9.1244 20.659 10.0429 22.37C10.9614 24.0809 12.2276 25.5757 13.7583 26.7559C14.7404 27.5283 15.8256 28.1561 16.9817 28.6209C18.6024 29.2929 20.3371 29.639 22.0887 29.64C25.7043 29.6319 29.1693 28.1738 31.7241 25.5852C34.2788 22.9966 35.7149 19.4889 35.7176 15.8308C35.7203 13.9439 35.3361 12.0769 34.5894 10.3479ZM22.0786 4.814C23.6516 4.81383 25.2056 5.16166 26.6317 5.83313C26.2839 5.98515 25.9183 6.09133 25.5438 6.14906C24.3114 6.32954 23.1698 6.90839 22.2893 7.7992C21.4089 8.69002 20.8367 9.84503 20.6583 11.0918C20.58 11.7911 20.2657 12.4416 19.7684 12.9336C19.2711 13.4256 18.6212 13.729 17.9285 13.7925C16.6962 13.973 15.5546 14.5519 14.6741 15.4427C13.7936 16.3335 13.2215 17.4885 13.0431 18.7353C12.9827 19.4002 12.7023 20.025 12.2473 20.5086C11.4623 18.8304 11.1096 16.9785 11.2221 15.1253C11.3347 13.2721 11.9087 11.4778 12.8909 9.90939C13.8731 8.341 15.2315 7.04948 16.8397 6.15502C18.4479 5.26056 20.2535 4.79223 22.0887 4.79361L22.0786 4.814ZM13.7482 22.9647C13.8691 22.8526 13.9899 22.7507 14.1108 22.6284C15.007 21.7493 15.5822 20.589 15.7427 19.3366C15.8077 18.6326 16.1184 17.9751 16.619 17.4818C17.1008 16.9744 17.7492 16.6627 18.4423 16.6053C19.6746 16.4248 20.8162 15.846 21.6967 14.9552C22.5772 14.0644 23.1493 12.9094 23.3277 11.6626C23.3713 10.9262 23.6836 10.2325 24.2041 9.71601C24.6977 9.21853 25.3523 8.91814 26.0474 8.87013C27.1796 8.71254 28.2354 8.20333 29.0694 7.41278C30.0189 8.20981 30.8234 9.16863 31.4466 10.246C31.4083 10.2983 31.3644 10.3461 31.3157 10.3886C30.8348 10.9004 30.1872 11.219 29.4924 11.2855C28.2588 11.4628 27.1155 12.0406 26.2344 12.932C25.3534 13.8234 24.7823 14.9802 24.607 16.2283C24.536 16.9298 24.2274 17.585 23.7336 18.0828C23.2398 18.5806 22.591 18.8903 21.8973 18.9595C20.6614 19.1386 19.5155 19.7163 18.6299 20.6068C17.7443 21.4972 17.1663 22.653 16.9817 23.9023C16.9274 24.4004 16.7584 24.8786 16.4881 25.2985C15.4546 24.6777 14.5289 23.8892 13.7482 22.9647ZM22.0786 26.8985C21.0565 26.8997 20.0393 26.7556 19.0567 26.4705C19.3928 25.8366 19.6113 25.1458 19.7014 24.4322C19.772 23.7322 20.0791 23.0782 20.5709 22.5807C21.0627 22.0831 21.7091 21.7724 22.401 21.701C23.6351 21.5225 24.779 20.9446 25.6615 20.0536C26.544 19.1626 27.1176 18.0065 27.2965 16.7582C27.3671 16.0582 27.6742 15.4042 28.166 14.9066C28.6578 14.4091 29.3042 14.0984 29.9961 14.0269C30.9248 13.9047 31.8101 13.5549 32.5748 13.0078C32.9994 14.6363 33.0497 16.3415 32.7218 17.9927C32.3939 19.6439 31.6966 21.1972 30.6832 22.5334C29.6698 23.8695 28.3674 24.9531 26.8759 25.701C25.3843 26.4488 23.7433 26.841 22.0786 26.8476V26.8985Z" fill="black"/>
</svg>
