<svg width="137" height="32" viewBox="0 0 137 32" fill="none" xmlns="http://www.w3.org/2000/svg">
<path d="M45.3039 21.3401H53.42V18.8345H48.1638V9.43848H45.3039V21.3401ZM58.2897 19.6958C57.1302 19.6958 56.5118 18.6779 56.5118 17.1119C56.5118 15.5459 57.1302 14.528 58.2897 14.528C59.4491 14.528 60.0675 15.5459 60.0675 17.1119C60.0675 18.6779 59.4491 19.6958 58.2897 19.6958ZM58.2897 21.6533C60.995 21.6533 62.7729 19.6958 62.7729 17.1902C62.7729 14.6063 60.995 12.7271 58.2897 12.7271C55.5843 12.7271 53.8065 14.6846 53.8065 17.1902C53.8065 19.6958 55.5843 21.6533 58.2897 21.6533ZM67.4106 24.3155C68.6474 24.3155 69.7295 24.0023 70.5025 23.3759C71.1982 22.7495 71.5847 21.8099 71.5847 20.5571V12.8837H69.0339V13.8233C68.5701 13.1186 67.7971 12.6488 66.715 12.6488C64.628 12.6488 63.1593 14.3714 63.1593 16.877C63.1593 19.4609 64.9372 20.8703 66.7923 20.8703C67.7971 20.8703 68.4155 20.4788 68.9566 19.9307H69.0339V20.792C69.0339 21.8099 68.5701 22.4363 67.4106 22.4363C66.5604 22.4363 66.0966 22.0448 65.942 21.575H63.3912C63.5458 23.3759 65.0917 24.3155 67.4106 24.3155ZM67.4106 18.9128C66.4058 18.9128 65.7874 18.0515 65.7874 16.7987C65.7874 15.4676 66.4058 14.6846 67.4106 14.6846C68.4928 14.6846 69.1112 15.6242 69.1112 16.7987C69.1112 17.9732 68.5701 18.9128 67.4106 18.9128ZM76.8408 19.6958C75.6814 19.6958 75.063 18.6779 75.063 17.1119C75.063 15.5459 75.6814 14.528 76.8408 14.528C78.0003 14.528 78.6186 15.5459 78.6186 17.1119C78.6186 18.6779 78.0003 19.6958 76.8408 19.6958ZM76.8408 21.6533C79.5462 21.6533 81.324 19.6958 81.324 17.1902C81.324 14.6063 79.5462 12.7271 76.8408 12.7271C74.1354 12.7271 72.3576 14.6846 72.3576 17.1902C72.3576 19.6958 74.2127 21.6533 76.8408 21.6533ZM82.097 21.3401H84.8023V12.8837H82.097V21.3401ZM82.097 11.7092H84.8023V9.51678H82.097V11.7092ZM85.9618 24.1589H88.6672V20.4788C89.2082 21.1835 89.9812 21.6533 91.0633 21.6533C93.2276 21.6533 94.6963 19.9307 94.6963 17.1119C94.6963 14.528 93.3049 12.6488 91.1406 12.6488C89.9812 12.6488 89.2082 13.1969 88.5899 13.9016H88.5126V12.8837H85.9618V24.1589ZM90.3677 19.5392C89.2082 19.5392 88.5899 18.5996 88.5899 17.1902C88.5899 15.7808 89.2082 14.7629 90.3677 14.7629C91.5271 14.7629 92.0682 15.7025 92.0682 17.1902C91.9909 18.6779 91.3725 19.5392 90.3677 19.5392ZM99.0249 21.6533C101.189 21.6533 102.812 20.7137 102.812 18.8345C102.812 16.6421 101.112 16.2506 99.566 16.0157C98.4838 15.7808 97.5563 15.7025 97.5563 15.1544C97.5563 14.6063 98.0973 14.3714 98.7157 14.3714C99.4887 14.3714 99.9524 14.6063 100.03 15.3893H102.503C102.349 13.745 101.112 12.6488 98.7157 12.6488C96.706 12.6488 95.0828 13.5884 95.0828 15.3893C95.0828 17.3468 96.6287 17.7383 98.0973 18.0515C99.1795 18.2864 100.262 18.3647 100.262 19.0694C100.262 19.6175 99.7205 19.9307 98.9476 19.9307C98.0973 19.9307 97.4789 19.5392 97.4016 18.6779H94.9282C95.0055 20.4788 96.5514 21.6533 99.0249 21.6533ZM106.445 21.6533C107.605 21.6533 108.378 21.1835 108.919 20.3222H108.996V21.3401H111.547V12.8837H108.842V17.66C108.842 18.6779 108.3 19.3826 107.373 19.3826C106.523 19.3826 106.136 18.8345 106.136 17.9732V12.962H103.508V18.443C103.508 20.3222 104.513 21.6533 106.445 21.6533ZM112.706 21.3401H115.412V16.5638C115.412 15.5459 115.875 14.8412 116.726 14.8412C117.499 14.8412 117.885 15.3893 117.885 16.2506V21.2618H120.591V16.4855C120.591 15.4676 121.054 14.7629 121.905 14.7629C122.678 14.7629 123.064 15.311 123.064 16.1723V21.1835H125.769V15.6242C125.769 13.745 124.842 12.4139 122.909 12.4139C121.827 12.4139 120.9 12.8837 120.281 13.9016C119.818 12.962 119.045 12.4139 117.963 12.4139C116.726 12.4139 115.953 12.962 115.412 13.9016H115.334V12.7271H112.706V21.3401Z" fill="black"/>
<path fill-rule="evenodd" clip-rule="evenodd" d="M24.0471 29.64C31.5448 29.64 37.6512 23.4543 37.6512 15.8591C37.6512 8.18572 31.5448 2 24.0471 2C16.472 2 10.3656 8.18572 10.3656 15.8591C10.3656 23.4543 16.472 29.64 24.0471 29.64ZM28.2984 8.49893C28.5303 7.71592 27.7573 7.32442 27.1389 7.79422L18.0179 14.3714C17.3223 14.9195 17.3996 15.9375 18.1725 15.9375H25.2065L21.419 17.2686L19.7185 23.2977C19.4866 24.0807 20.2595 24.4722 20.8779 24.0024L29.9989 17.3469C30.6946 16.7988 30.6173 15.7808 29.8443 15.7808H26.2114L28.2984 8.49893Z" fill="black"/>
</svg>
