<svg width="138" height="32" viewBox="0 0 138 32" fill="none" xmlns="http://www.w3.org/2000/svg">
<path d="M8.77525 15.9551C12.5311 15.9551 15.5757 12.8608 15.5757 9.04408C15.5757 5.22732 12.5311 2.13318 8.77525 2.13318C5.01948 2.13318 1.97478 5.22732 1.97478 9.04408C1.97478 12.8608 5.01948 15.9551 8.77525 15.9551Z" fill="#12151E"/>
<path d="M8.77542 29.7768C12.5312 29.7768 15.5759 26.6825 15.5759 22.8658C15.5759 19.0492 12.5312 15.9549 8.77542 15.9549C5.01965 15.9549 1.97495 19.0492 1.97495 22.8658C1.97495 26.6825 5.01965 29.7768 8.77542 29.7768Z" fill="#12151E"/>
<path d="M37.8812 21.5822H46.9993V19.0588H40.8928V7.10706H37.8812V21.5822Z" fill="#12151E"/>
<path d="M53.1771 21.7944C56.4178 21.7944 58.435 19.5396 58.435 16.1963C58.435 12.832 56.4178 10.5844 53.1771 10.5844C49.9359 10.5844 47.9191 12.832 47.9191 16.1963C47.9191 19.5396 49.9359 21.7944 53.1771 21.7944ZM53.1907 19.462C51.6954 19.462 50.9307 18.0696 50.9307 16.1753C50.9307 14.281 51.6954 12.8815 53.1907 12.8815C54.6582 12.8815 55.4234 14.281 55.4234 16.1753C55.4234 18.0696 54.6582 19.462 53.1907 19.462Z" fill="#12151E"/>
<path d="M64.5881 25.8796C67.6413 25.8796 69.8113 24.4658 69.8113 21.6882V10.7258H66.8696V12.5491H66.7581C66.3617 11.6658 65.492 10.5844 63.7048 10.5844C61.361 10.5844 59.3789 12.4363 59.3789 16.1329C59.3789 19.7444 61.3052 21.4267 63.7118 21.4267C65.4156 21.4267 66.3687 20.5572 66.7581 19.6596H66.8832V21.6458C66.8832 23.1372 65.9442 23.7167 64.6574 23.7167C63.3501 23.7167 62.6894 23.1372 62.4457 22.4796L59.7059 22.8543C60.0606 24.5648 61.7086 25.8796 64.5881 25.8796ZM64.6509 19.1648C63.1973 19.1648 62.404 17.9915 62.404 16.1186C62.404 14.2739 63.1833 12.9805 64.6509 12.9805C66.0903 12.9805 66.8972 14.2172 66.8972 16.1186C66.8972 18.0339 66.0763 19.1648 64.6509 19.1648Z" fill="#12151E"/>
<path d="M76.4075 21.7944C79.6487 21.7944 81.6655 19.5396 81.6655 16.1963C81.6655 12.832 79.6487 10.5844 76.4075 10.5844C73.1664 10.5844 71.1496 12.832 71.1496 16.1963C71.1496 19.5396 73.1664 21.7944 76.4075 21.7944ZM76.4211 19.462C74.9259 19.462 74.1611 18.0696 74.1611 16.1753C74.1611 14.281 74.9259 12.8815 76.4211 12.8815C77.8887 12.8815 78.6539 14.281 78.6539 16.1753C78.6539 18.0696 77.8887 19.462 76.4211 19.462Z" fill="#12151E"/>
<path d="M83.0044 21.5817H85.9673V10.7255H83.0044V21.5817ZM84.4931 9.32595C85.3759 9.32595 86.0994 8.64038 86.0994 7.79928C86.0994 6.96523 85.3759 6.27966 84.4931 6.27966C83.6164 6.27966 82.8929 6.96523 82.8929 7.79928C82.8929 8.64038 83.6164 9.32595 84.4931 9.32595Z" fill="#12151E"/>
<path d="M87.7539 25.6534H90.7167V19.8434H90.8071C91.2171 20.7482 92.1145 21.7586 93.8393 21.7586C96.2736 21.7586 98.1723 19.801 98.1723 16.1682C98.1723 12.4363 96.1902 10.5844 93.8464 10.5844C92.0587 10.5844 91.2036 11.6658 90.8071 12.5491H90.675V10.7258H87.7539V25.6534ZM90.6539 16.1539C90.6539 14.2172 91.4608 12.9805 92.9008 12.9805C94.3679 12.9805 95.1467 14.2739 95.1467 16.1539C95.1467 18.0482 94.3538 19.3629 92.9008 19.3629C91.4744 19.3629 90.6539 18.0905 90.6539 16.1539Z" fill="#12151E"/>
<path d="M108.449 13.8215C108.184 11.8215 106.599 10.5844 103.9 10.5844C101.167 10.5844 99.3654 11.8705 99.372 13.9629C99.3654 15.5886 100.374 16.6415 102.46 17.0658L104.31 17.4405C105.242 17.631 105.667 17.9777 105.68 18.522C105.667 19.1648 104.978 19.6244 103.942 19.6244C102.884 19.6244 102.182 19.1648 102.001 18.2815L99.0871 18.4367C99.3654 20.5148 101.104 21.7944 103.935 21.7944C106.703 21.7944 108.685 20.3596 108.692 18.2177C108.685 16.6486 107.677 15.7086 105.604 15.2777L103.67 14.8815C102.676 14.6624 102.307 14.3163 102.314 13.7934C102.307 13.1429 103.031 12.7191 103.949 12.7191C104.978 12.7191 105.59 13.2915 105.736 13.991L108.449 13.8215Z" fill="#12151E"/>
<path d="M116.821 16.9594C116.828 18.4156 115.847 19.1789 114.783 19.1789C113.663 19.1789 112.94 18.3803 112.933 17.1008V10.7256H109.97V17.638C109.977 20.1756 111.437 21.7232 113.586 21.7232C115.193 21.7232 116.347 20.8823 116.828 19.6099H116.939V21.5818H119.783V10.7256H116.821V16.9594Z" fill="#12151E"/>
<path d="M121.566 21.582H124.529V15.0653C124.529 13.8639 125.28 13.0653 126.268 13.0653C127.242 13.0653 127.895 13.7439 127.895 14.811V21.582H130.768V14.9524C130.768 13.8286 131.401 13.0653 132.479 13.0653C133.425 13.0653 134.134 13.6663 134.134 14.8748V21.582H137.09V14.281C137.09 11.9272 135.713 10.5844 133.724 10.5844C132.159 10.5844 130.942 11.3972 130.504 12.641H130.392C130.051 11.3829 128.96 10.5844 127.492 10.5844C126.053 10.5844 124.96 11.362 124.515 12.641H124.39V10.7258H121.566V21.582Z" fill="#12151E"/>
<path d="M22.3758 15.9551C26.1318 15.9551 29.1762 12.8608 29.1762 9.04408C29.1762 5.22732 26.1318 2.13318 22.3758 2.13318C18.62 2.13318 15.5754 5.22732 15.5754 9.04408C15.5754 12.8608 18.62 15.9551 22.3758 15.9551Z" fill="#12151E"/>
<path d="M22.3758 29.7767C26.1318 29.7767 29.1762 26.6825 29.1762 22.8658C29.1762 19.0491 26.1318 15.9548 22.3758 15.9548C18.62 15.9548 15.5754 19.0491 15.5754 22.8658C15.5754 26.6825 18.62 29.7767 22.3758 29.7767Z" fill="#12151E"/>
<path d="M37.8812 21.5822H46.9993V19.0588H40.8928V7.10706H37.8812V21.5822Z" fill="#12151E"/>
<path d="M53.1771 21.7944C56.4178 21.7944 58.435 19.5396 58.435 16.1963C58.435 12.832 56.4178 10.5844 53.1771 10.5844C49.9359 10.5844 47.9191 12.832 47.9191 16.1963C47.9191 19.5396 49.9359 21.7944 53.1771 21.7944ZM53.1907 19.462C51.6954 19.462 50.9307 18.0696 50.9307 16.1753C50.9307 14.281 51.6954 12.8815 53.1907 12.8815C54.6582 12.8815 55.4234 14.281 55.4234 16.1753C55.4234 18.0696 54.6582 19.462 53.1907 19.462Z" fill="#12151E"/>
<path d="M64.5881 25.8796C67.6413 25.8796 69.8113 24.4658 69.8113 21.6882V10.7258H66.8696V12.5491H66.7581C66.3617 11.6658 65.492 10.5844 63.7048 10.5844C61.361 10.5844 59.3789 12.4363 59.3789 16.1329C59.3789 19.7444 61.3052 21.4267 63.7118 21.4267C65.4156 21.4267 66.3687 20.5572 66.7581 19.6596H66.8832V21.6458C66.8832 23.1372 65.9442 23.7167 64.6574 23.7167C63.3501 23.7167 62.6894 23.1372 62.4457 22.4796L59.7059 22.8543C60.0606 24.5648 61.7086 25.8796 64.5881 25.8796ZM64.6509 19.1648C63.1973 19.1648 62.404 17.9915 62.404 16.1186C62.404 14.2739 63.1833 12.9805 64.6509 12.9805C66.0903 12.9805 66.8972 14.2172 66.8972 16.1186C66.8972 18.0339 66.0763 19.1648 64.6509 19.1648Z" fill="#12151E"/>
<path d="M76.4075 21.7944C79.6487 21.7944 81.6655 19.5396 81.6655 16.1963C81.6655 12.832 79.6487 10.5844 76.4075 10.5844C73.1664 10.5844 71.1496 12.832 71.1496 16.1963C71.1496 19.5396 73.1664 21.7944 76.4075 21.7944ZM76.4211 19.462C74.9259 19.462 74.1611 18.0696 74.1611 16.1753C74.1611 14.281 74.9259 12.8815 76.4211 12.8815C77.8887 12.8815 78.6539 14.281 78.6539 16.1753C78.6539 18.0696 77.8887 19.462 76.4211 19.462Z" fill="#12151E"/>
<path d="M83.0044 21.5817H85.9673V10.7255H83.0044V21.5817ZM84.4931 9.32595C85.3759 9.32595 86.0994 8.64038 86.0994 7.79928C86.0994 6.96523 85.3759 6.27966 84.4931 6.27966C83.6164 6.27966 82.8929 6.96523 82.8929 7.79928C82.8929 8.64038 83.6164 9.32595 84.4931 9.32595Z" fill="#12151E"/>
<path d="M87.7539 25.6534H90.7167V19.8434H90.8071C91.2171 20.7482 92.1145 21.7586 93.8393 21.7586C96.2736 21.7586 98.1723 19.801 98.1723 16.1682C98.1723 12.4363 96.1902 10.5844 93.8464 10.5844C92.0587 10.5844 91.2036 11.6658 90.8071 12.5491H90.675V10.7258H87.7539V25.6534ZM90.6539 16.1539C90.6539 14.2172 91.4608 12.9805 92.9008 12.9805C94.3679 12.9805 95.1467 14.2739 95.1467 16.1539C95.1467 18.0482 94.3538 19.3629 92.9008 19.3629C91.4744 19.3629 90.6539 18.0905 90.6539 16.1539Z" fill="#12151E"/>
<path d="M108.449 13.8215C108.184 11.8215 106.599 10.5844 103.9 10.5844C101.167 10.5844 99.3654 11.8705 99.372 13.9629C99.3654 15.5886 100.374 16.6415 102.46 17.0658L104.31 17.4405C105.242 17.631 105.667 17.9777 105.68 18.522C105.667 19.1648 104.978 19.6244 103.942 19.6244C102.884 19.6244 102.182 19.1648 102.001 18.2815L99.0871 18.4367C99.3654 20.5148 101.104 21.7944 103.935 21.7944C106.703 21.7944 108.685 20.3596 108.692 18.2177C108.685 16.6486 107.677 15.7086 105.604 15.2777L103.67 14.8815C102.676 14.6624 102.307 14.3163 102.314 13.7934C102.307 13.1429 103.031 12.7191 103.949 12.7191C104.978 12.7191 105.59 13.2915 105.736 13.991L108.449 13.8215Z" fill="#12151E"/>
<path d="M116.821 16.9594C116.828 18.4156 115.847 19.1789 114.783 19.1789C113.663 19.1789 112.94 18.3803 112.933 17.1008V10.7256H109.97V17.638C109.977 20.1756 111.437 21.7232 113.586 21.7232C115.193 21.7232 116.347 20.8823 116.828 19.6099H116.939V21.5818H119.783V10.7256H116.821V16.9594Z" fill="#12151E"/>
<path d="M121.444 21.9976H124.407V15.481C124.407 14.2795 125.158 13.481 126.146 13.481C127.12 13.481 127.774 14.1595 127.774 15.2267V21.9976H130.646V15.3681C130.646 14.2443 131.279 13.481 132.357 13.481C133.303 13.481 134.012 14.0819 134.012 15.2905V21.9976H136.968V14.6967C136.968 12.3429 135.591 11 133.602 11C132.037 11 130.82 11.8129 130.382 13.0567H130.27C129.93 11.7986 128.838 11 127.37 11C125.931 11 124.838 11.7776 124.393 13.0567H124.268V11.1414H121.444V21.9976Z" fill="#12151E"/>
</svg>
