<svg width="137" height="32" viewBox="0 0 137 32" fill="none" xmlns="http://www.w3.org/2000/svg">
<path d="M42.6627 10.4495H45.6313V22.6132H42.6627V10.4495ZM46.8151 18.0378C46.8151 15.0249 48.6647 13.2191 51.4391 13.2191C54.2136 13.2191 56.0632 15.0249 56.0632 18.0378C56.0632 21.0506 54.2783 22.8751 51.4391 22.8751C48.6 22.8751 46.8151 21.1161 46.8151 18.0378ZM53.1223 18.0378C53.1223 16.3816 52.4842 15.4085 51.4669 15.4085C50.4496 15.4085 49.8207 16.3442 49.8207 18.0378C49.8207 19.7313 50.4496 20.6576 51.4669 20.6576C52.4842 20.6576 53.1408 19.7313 53.1408 18.0471L53.1223 18.0378ZM57.247 23.2401H60.1139C60.2444 23.5523 60.4723 23.8128 60.7629 23.9818C61.0534 24.1507 61.3907 24.2188 61.7231 24.1757C62.8606 24.1757 63.4525 23.5582 63.4525 22.6412V20.957H63.4617C63.2167 21.4815 62.8206 21.9186 62.3253 22.2108C61.8301 22.5031 61.2591 22.6368 60.6873 22.5944C58.514 22.5944 57.0712 20.9196 57.0712 18.0378C57.0712 15.1559 58.4492 13.3594 60.7705 13.3594C61.3569 13.3277 61.9387 13.4807 62.4356 13.7974C62.9325 14.1141 63.32 14.579 63.5449 15.1278H63.4617V13.4343H66.4026V22.5477C66.4026 24.7465 64.479 26.1219 61.6491 26.1219C59.0781 26.1125 57.4319 24.9242 57.2655 23.2494L57.247 23.2401ZM63.4617 18.0378C63.4617 16.5688 62.7958 15.6425 61.7416 15.6425C60.6873 15.6425 60.0399 16.5781 60.0399 18.0378C60.0399 19.4974 60.678 20.3582 61.7416 20.3582C62.8051 20.3582 63.4617 19.5629 63.4617 18.0378ZM67.5771 18.0378C67.5771 15.0249 69.4267 13.2191 72.2012 13.2191C74.9756 13.2191 76.8252 15.0249 76.8252 18.0378C76.8252 21.0506 75.0311 22.8751 72.2012 22.8751C69.3713 22.8751 67.5956 21.1161 67.5956 18.0378H67.5771ZM73.8843 18.0378C73.8843 16.3816 73.237 15.4085 72.2289 15.4085C71.2209 15.4085 70.5828 16.3442 70.5828 18.0378C70.5828 19.7313 71.2116 20.6576 72.2289 20.6576C73.2462 20.6576 73.9028 19.7313 73.9028 18.0471L73.8843 18.0378ZM78.0275 11.2168C78.0146 10.9108 78.0924 10.608 78.251 10.3471C78.4097 10.0863 78.6418 9.87949 78.9175 9.75324C79.1933 9.627 79.5001 9.58711 79.7984 9.63871C80.0967 9.69032 80.373 9.83105 80.5917 10.0428C80.8103 10.2546 80.9613 10.5277 81.0253 10.827C81.0892 11.1263 81.0632 11.4381 80.9506 11.7223C80.8379 12.0066 80.6438 12.2502 80.3932 12.4219C80.1425 12.5936 79.8469 12.6855 79.5442 12.6858C79.3508 12.6907 79.1583 12.6568 78.9779 12.5859C78.7976 12.515 78.6329 12.4086 78.4936 12.2728C78.3542 12.137 78.2428 11.9745 78.166 11.7949C78.0892 11.6152 78.0484 11.4219 78.046 11.2261L78.0275 11.2168ZM78.0275 13.4249H81.0331V22.6506H78.0737L78.0275 13.4249ZM91.8442 18.0378C91.8442 21.0412 90.5125 22.7816 88.2467 22.7816C87.6666 22.8178 87.0895 22.673 86.5934 22.3668C86.0972 22.0606 85.7059 21.6077 85.4722 21.0693H85.4168V25.6166H82.4481V13.453H85.3983V15.0998H85.4537C85.6794 14.5508 86.0669 14.0855 86.5634 13.7674C87.0598 13.4493 87.6412 13.2937 88.2282 13.322C90.5587 13.3033 91.8997 15.0343 91.8997 18.0471L91.8442 18.0378ZM88.8201 18.0378C88.8201 16.5781 88.145 15.6331 87.0999 15.6331C86.0549 15.6331 85.3983 16.5688 85.389 18.0378C85.3798 19.5067 86.0549 20.4331 87.0999 20.4331C88.145 20.4331 88.8756 19.5629 88.8756 18.0471L88.8201 18.0378ZM96.9122 13.2097C99.3999 13.2097 100.944 14.398 100.963 16.3068H98.2532C98.2532 15.6425 97.7075 15.2308 96.8937 15.2308C96.0799 15.2308 95.6914 15.5489 95.6914 16.0261C95.6914 16.5033 96.0336 16.653 96.718 16.7933L98.6231 17.1863C100.473 17.5793 101.213 18.3278 101.213 19.7219C101.213 21.5933 99.5017 22.8658 96.9584 22.8658C94.4152 22.8658 92.7598 21.6307 92.6395 19.75H95.5157C95.5989 20.4331 96.1353 20.8354 97.0047 20.8354C97.874 20.8354 98.2809 20.5547 98.2809 20.0588C98.2809 19.5629 98.0035 19.4787 97.2914 19.329L95.5712 18.9641C93.7863 18.5804 92.8522 17.6354 92.8522 16.2226C92.9077 14.3887 94.4614 13.2191 96.9677 13.2191L96.9122 13.2097ZM111.154 22.6412H108.278V20.9102H108.223C108.062 21.4876 107.711 21.9922 107.228 22.3409C106.746 22.6896 106.16 22.8615 105.568 22.8284C105.121 22.8431 104.676 22.762 104.263 22.5905C103.849 22.4189 103.475 22.1608 103.167 21.833C102.859 21.5052 102.623 21.1151 102.474 20.6884C102.325 20.2617 102.267 19.808 102.304 19.357V13.4343H105.272V18.7114C105.272 19.7968 105.837 20.3863 106.761 20.3863C106.978 20.3846 107.192 20.3359 107.389 20.2434C107.586 20.1508 107.761 20.0167 107.902 19.8499C108.043 19.6832 108.147 19.4878 108.207 19.2768C108.267 19.0659 108.282 18.8444 108.25 18.6272V13.4343H111.21L111.154 22.6412ZM112.588 13.4249H115.473V15.2027H115.538C115.697 14.6332 116.039 14.1332 116.509 13.7811C116.979 13.4289 117.552 13.2444 118.137 13.2565C118.724 13.2049 119.309 13.3767 119.778 13.7383C120.246 14.1 120.565 14.6255 120.671 15.212H120.8C120.985 14.6223 121.357 14.1109 121.859 13.7572C122.361 13.4036 122.964 13.2276 123.575 13.2565C123.98 13.2409 124.385 13.3122 124.762 13.4657C125.139 13.6192 125.479 13.8515 125.761 14.1474C126.043 14.4433 126.26 14.7961 126.398 15.1827C126.536 15.5694 126.592 15.9811 126.562 16.391V22.6506H123.575V17.1582C123.575 16.2226 123.14 15.6986 122.298 15.6986C122.112 15.6955 121.927 15.7333 121.756 15.8093C121.585 15.8854 121.432 15.9979 121.308 16.1392C121.184 16.2805 121.092 16.4473 121.038 16.628C120.984 16.8087 120.969 16.9992 120.994 17.1863V22.6506H118.164V17.1302C118.164 16.1945 117.711 15.6986 116.897 15.6986C116.709 15.6971 116.522 15.7364 116.35 15.8139C116.177 15.8914 116.023 16.0053 115.898 16.148C115.773 16.2907 115.679 16.4588 115.623 16.6411C115.568 16.8234 115.551 17.0157 115.575 17.205V22.6506H112.606L112.588 13.4249ZM36.7901 11.2448C36.7902 9.38256 36.2344 7.56369 35.1954 6.02644C34.1565 4.4892 32.6828 3.30526 30.9676 2.62971C29.2523 1.95415 27.3753 1.81848 25.5825 2.24046C23.7898 2.66243 22.1647 3.62239 20.9203 4.99458H9.37866V29.64H33.7475V18.122C34.7039 17.2564 35.4693 16.1966 35.9935 15.0116C36.5178 13.8266 36.7892 12.5431 36.7901 11.2448ZM32.1013 11.2448C32.1031 12.1372 31.8433 13.0101 31.3546 13.7529C30.8659 14.4958 30.1703 15.0753 29.356 15.4181C28.5416 15.7609 27.6451 15.8515 26.7798 15.6786C25.9145 15.5056 25.1193 15.0768 24.495 14.4465C23.8707 13.8161 23.4452 13.0126 23.2725 12.1375C23.0997 11.2624 23.1874 10.3551 23.5246 9.53048C23.8617 8.70586 24.433 8.00095 25.1662 7.50498C25.8995 7.00901 26.7617 6.74427 27.6437 6.74427C28.8243 6.74427 29.9567 7.21813 30.7924 8.06188C31.6281 8.90563 32.0989 10.0503 32.1013 11.2448ZM29.0587 24.8962H14.0675V9.7384H18.636C18.5478 10.2357 18.5014 10.7396 18.4973 11.2448C18.4998 13.6983 19.4642 16.0506 21.1789 17.7855C22.8937 19.5203 25.2187 20.4961 27.6437 20.4986C28.1178 20.496 28.591 20.4553 29.0587 20.3769V24.8962Z" fill="black"/>
</svg>
