<svg width="137" height="32" viewBox="0 0 137 32" fill="none" xmlns="http://www.w3.org/2000/svg">
<path d="M43.7645 24.4788C43.0764 24.5165 42.3957 24.3186 41.8325 23.917C41.5971 23.7404 41.4077 23.5086 41.2807 23.2414C41.1538 22.9743 41.093 22.6799 41.1036 22.3837V11.5335C41.098 11.4876 41.1028 11.4409 41.1177 11.3972C41.1326 11.3534 41.1571 11.3136 41.1894 11.2809C41.2218 11.2482 41.2611 11.2233 41.3044 11.2083C41.3476 11.1932 41.3937 11.1884 41.4391 11.1941H43.3827C43.6025 11.1941 43.7066 11.3111 43.7066 11.5335V21.5409C43.7066 21.9857 43.9033 22.2081 44.3082 22.2081C44.4798 22.2153 44.6515 22.1955 44.8172 22.1496C45.0486 22.1496 45.1759 22.2198 45.1874 22.4305L45.361 23.8936C45.3693 23.9362 45.3685 23.9802 45.3586 24.0225C45.3488 24.0648 45.33 24.1045 45.3037 24.1389C45.2774 24.1733 45.2441 24.2015 45.2061 24.2218C45.1681 24.2421 45.1262 24.2539 45.0833 24.2564C44.6576 24.3987 44.2128 24.4737 43.7645 24.4788Z" fill="black"/>
<path d="M54.6974 23.2262C53.7208 24.0426 52.4936 24.4891 51.2268 24.4891C49.9599 24.4891 48.7327 24.0426 47.7561 23.2262C46.8977 22.3495 46.4162 21.1654 46.4162 19.9314C46.4162 18.6973 46.8977 17.5132 47.7561 16.6365C48.7346 15.8244 49.9611 15.3805 51.2268 15.3805C52.4924 15.3805 53.7189 15.8244 54.6974 16.6365C55.536 17.5213 56.0042 18.6997 56.0042 19.9255C56.0042 21.1513 55.536 22.3297 54.6974 23.2145V23.2262ZM49.584 21.6812C50.0372 22.0965 50.6268 22.3266 51.2383 22.3266C51.8498 22.3266 52.4395 22.0965 52.8927 21.6812C53.3028 21.204 53.5287 20.593 53.5287 19.9606C53.5287 19.3282 53.3028 18.7172 52.8927 18.24C52.4395 17.8247 51.8498 17.5947 51.2383 17.5947C50.6268 17.5947 50.0372 17.8247 49.584 18.24C49.1738 18.7172 48.9479 19.3282 48.9479 19.9606C48.9479 20.593 49.1738 21.204 49.584 21.6812Z" fill="black"/>
<path d="M66.7055 15.6768C66.9253 15.6768 67.0294 15.7938 67.0294 16.0162V24.4084C67.0496 24.9748 66.9448 25.5387 66.7227 26.059C66.5006 26.5793 66.1667 27.043 65.7453 27.4165C64.8098 28.2234 63.6069 28.6417 62.3787 28.5869C61.2695 28.6264 60.175 28.3199 59.2436 27.7091C58.8459 27.4448 58.5061 27.1007 58.2454 26.698C57.9847 26.2953 57.8086 25.8426 57.7281 25.3682C57.7281 25.1341 57.7281 25.0287 58.0404 25.0287H59.984C60.0665 25.0316 60.1465 25.0585 60.2142 25.1063C60.2819 25.154 60.3346 25.2206 60.3658 25.2979C60.4918 25.6534 60.7431 25.9493 61.0715 26.129C61.4716 26.3379 61.917 26.4425 62.3672 26.4333C62.6388 26.4483 62.9107 26.4085 63.1669 26.316C63.4231 26.2236 63.6586 26.0804 63.8595 25.8949C64.0431 25.7008 64.1859 25.4711 64.2794 25.2196C64.3728 24.9682 64.415 24.7002 64.4033 24.4318V23.6944C63.7074 24.2123 62.8605 24.48 61.997 24.4552C61.3926 24.4774 60.7901 24.3759 60.2255 24.1567C59.6609 23.9374 59.1459 23.605 58.7114 23.1794C57.8774 22.3064 57.4111 21.1397 57.4111 19.9255C57.4111 18.7114 57.8774 17.5447 58.7114 16.6717C59.148 16.2498 59.6636 15.9206 60.2279 15.7035C60.7921 15.4864 61.3937 15.3858 61.997 15.4076C62.8855 15.3838 63.7552 15.6689 64.4611 16.2152V16.0279C64.4558 15.9831 64.4604 15.9376 64.4747 15.8947C64.4889 15.8519 64.5124 15.8128 64.5434 15.7803C64.5744 15.7478 64.6122 15.7227 64.654 15.7069C64.6958 15.691 64.7406 15.6847 64.7851 15.6885L66.7055 15.6768ZM62.2168 22.3718C62.5148 22.3811 62.8113 22.3241 63.0851 22.2048C63.359 22.0855 63.6036 21.9067 63.8017 21.6812C64.1863 21.1787 64.395 20.5611 64.395 19.9255C64.395 19.29 64.1863 18.6724 63.8017 18.1699C63.6043 17.9474 63.3612 17.7713 63.0894 17.6541C62.8176 17.5368 62.5237 17.4811 62.2283 17.491C61.9269 17.4814 61.6269 17.5382 61.3493 17.6574C61.0716 17.7767 60.8229 17.9555 60.6203 18.1816C60.1942 18.6623 59.9701 19.2921 59.9956 19.9372C59.9747 20.5761 60.1938 21.1992 60.6087 21.6812C60.8118 21.9067 61.0606 22.0851 61.3382 22.2043C61.6157 22.3235 61.9154 22.3806 62.2168 22.3718Z" fill="black"/>
<path d="M77.0138 23.2261C76.0353 24.0382 74.8088 24.4821 73.5431 24.4821C72.2775 24.4821 71.051 24.0382 70.0725 23.2261C69.2331 22.3393 68.7646 21.159 68.7646 19.9312C68.7646 18.7035 69.2331 17.5231 70.0725 16.6364C71.0519 15.8263 72.2781 15.3838 73.5431 15.3838C74.8082 15.3838 76.0343 15.8263 77.0138 16.6364C77.8523 17.5212 78.3205 18.6996 78.3205 19.9254C78.3205 21.1512 77.8523 22.3296 77.0138 23.2144V23.2261ZM71.8888 21.6811C72.1106 21.8945 72.372 22.0613 72.658 22.1718C72.9439 22.2823 73.2487 22.3343 73.5547 22.3248C73.8587 22.3328 74.1613 22.28 74.4452 22.1696C74.7291 22.0591 74.9886 21.8931 75.209 21.6811C75.6125 21.2007 75.834 20.5909 75.834 19.9605C75.834 19.3301 75.6125 18.7203 75.209 18.2399C74.9886 18.0279 74.7291 17.8619 74.4452 17.7514C74.1613 17.6409 73.8587 17.5882 73.5547 17.5962C73.2487 17.5866 72.9439 17.6386 72.658 17.7491C72.372 17.8596 72.1106 18.0265 71.8888 18.2399C71.4853 18.7203 71.2638 19.3301 71.2638 19.9605C71.2638 20.5909 71.4853 21.2007 71.8888 21.6811Z" fill="black"/>
<path d="M82.4973 13.6873C82.1915 13.9581 81.7989 14.1074 81.3925 14.1074C80.9861 14.1074 80.5935 13.9581 80.2877 13.6873C80.149 13.5549 80.0386 13.3953 79.9631 13.2181C79.8876 13.041 79.8486 12.8502 79.8486 12.6573C79.8486 12.4644 79.8876 12.2735 79.9631 12.0964C80.0386 11.9193 80.149 11.7597 80.2877 11.6273C80.5967 11.3632 80.9881 11.2184 81.3925 11.2184C81.797 11.2184 82.1884 11.3632 82.4973 11.6273C82.636 11.7597 82.7465 11.9193 82.822 12.0964C82.8975 12.2735 82.9364 12.4644 82.9364 12.6573C82.9364 12.8502 82.8975 13.041 82.822 13.2181C82.7465 13.3953 82.636 13.5549 82.4973 13.6873ZM82.7403 24.4789C82.0526 24.513 81.3731 24.3154 80.8083 23.9171C80.5765 23.738 80.3904 23.5053 80.2656 23.2386C80.1409 22.9718 80.081 22.6787 80.091 22.3838V16.0165C80.0854 15.9706 80.0902 15.9239 80.1051 15.8802C80.1199 15.8364 80.1445 15.7966 80.1768 15.7639C80.2092 15.7312 80.2485 15.7063 80.2918 15.6913C80.335 15.6762 80.3811 15.6714 80.4265 15.6771H82.3701C82.5899 15.6771 82.694 15.7941 82.694 16.0165V21.5411C82.694 21.9858 82.8907 22.2082 83.284 22.2082C83.4594 22.2146 83.6348 22.1949 83.8046 22.1497C84.036 22.1497 84.1632 22.2199 84.1748 22.4306L84.3483 23.8937C84.3567 23.9363 84.3559 23.9803 84.346 24.0226C84.3361 24.0649 84.3174 24.1046 84.2911 24.139C84.2648 24.1734 84.2315 24.2017 84.1935 24.2219C84.1555 24.2422 84.1136 24.254 84.0707 24.2565C83.6412 24.3996 83.1924 24.4746 82.7403 24.4789Z" fill="black"/>
<path d="M91.4974 15.3952C92.1045 15.3709 92.7102 15.4703 93.2785 15.6874C93.8469 15.9046 94.3664 16.2351 94.8061 16.6592C95.6241 17.5475 96.079 18.7165 96.079 19.9307C96.079 21.1448 95.6241 22.3138 94.8061 23.2021C94.3685 23.6301 93.8497 23.9638 93.281 24.1831C92.7123 24.4024 92.1055 24.5027 91.4974 24.4779C90.631 24.4974 89.7821 24.2303 89.0795 23.7171V27.9425C89.0795 28.1648 88.9638 28.2702 88.744 28.2702H86.8004C86.7561 28.2786 86.7104 28.2759 86.6673 28.2624C86.6242 28.2489 86.585 28.225 86.5531 28.1927C86.5212 28.1604 86.4976 28.1208 86.4842 28.0772C86.4709 28.0336 86.4682 27.9873 86.4765 27.9425V18.3447C86.4901 18.2508 86.4819 18.155 86.4524 18.065C86.4229 17.9749 86.373 17.893 86.3067 17.8259C86.2404 17.7589 86.1595 17.7084 86.0705 17.6786C85.9814 17.6487 85.8867 17.6404 85.7939 17.6541H85.4122C85.1577 17.6541 85.0304 17.5605 85.0304 17.3732V15.9921C85.0244 15.9066 85.0475 15.8217 85.096 15.7514C85.1444 15.6811 85.2152 15.6297 85.2965 15.6058C85.6967 15.4587 86.1202 15.3872 86.5459 15.3952C86.9705 15.3571 87.3966 15.4482 87.7696 15.6567C88.1427 15.8653 88.4457 16.1817 88.6399 16.5656C89.0125 16.1842 89.4581 15.8837 89.9494 15.6825C90.4407 15.4812 90.9675 15.3835 91.4974 15.3952ZM89.6926 21.6805C89.8989 21.8986 90.1467 22.0722 90.4211 22.1908C90.6955 22.3094 90.9908 22.3705 91.2891 22.3705C91.5875 22.3705 91.8828 22.3094 92.1572 22.1908C92.4316 22.0722 92.6794 21.8986 92.8856 21.6805C93.3202 21.1902 93.5485 20.5477 93.5219 19.8897C93.5522 19.2311 93.3234 18.5872 92.8856 18.0989C92.6794 17.8808 92.4316 17.7072 92.1572 17.5886C91.8828 17.4701 91.5875 17.4089 91.2891 17.4089C90.9908 17.4089 90.6955 17.4701 90.4211 17.5886C90.1467 17.7072 89.8989 17.8808 89.6926 18.0989C89.2717 18.5959 89.0526 19.2358 89.0795 19.8897C89.056 20.5431 89.2747 21.1818 89.6926 21.6805Z" fill="black"/>
<path d="M101.54 24.4784C100.501 24.5216 99.4716 24.2702 98.5668 23.7527C98.2037 23.5315 97.8946 23.2304 97.6622 22.8717C97.4299 22.5131 97.2804 22.1061 97.2248 21.681C97.2248 21.4469 97.3058 21.3299 97.5603 21.3299H99.2609C99.3418 21.3331 99.4203 21.3588 99.4876 21.4042C99.555 21.4497 99.6087 21.513 99.6427 21.5874C99.8856 22.2194 100.522 22.5354 101.54 22.5354C101.895 22.5519 102.249 22.4795 102.57 22.3248C102.68 22.2742 102.775 22.1941 102.845 22.0931C102.914 21.9921 102.955 21.8739 102.963 21.7512C102.963 21.4469 102.778 21.2362 102.408 21.0958C101.969 20.9479 101.515 20.8498 101.054 20.8032C100.509 20.7407 99.9676 20.643 99.4344 20.5106C98.916 20.3918 98.4445 20.1187 98.0809 19.7263C97.8668 19.4597 97.7091 19.1513 97.6178 18.8204C97.5265 18.4895 97.5035 18.1431 97.5501 17.8027C97.5968 17.4624 97.7121 17.1354 97.889 16.8422C98.0659 16.5489 98.3006 16.2955 98.5784 16.0979C99.4122 15.5605 100.391 15.2987 101.378 15.3488C102.334 15.3161 103.28 15.5554 104.108 16.0394C104.442 16.2307 104.73 16.4949 104.95 16.8128C105.17 17.1307 105.317 17.4943 105.381 17.877C105.381 18.1111 105.277 18.2282 105.068 18.2282H103.356C103.284 18.2325 103.212 18.2147 103.151 18.1771C103.089 18.1395 103.039 18.0839 103.009 18.0175C102.895 17.7402 102.679 17.5181 102.408 17.3971C102.101 17.2348 101.759 17.1543 101.413 17.163C101.074 17.1444 100.735 17.2128 100.429 17.362C100.322 17.4041 100.229 17.4779 100.163 17.5738C100.097 17.6698 100.061 17.7835 100.059 17.9004C100.067 18.0605 100.124 18.2139 100.224 18.3382C100.324 18.4625 100.461 18.5511 100.614 18.591C101.059 18.7604 101.521 18.8782 101.991 18.9421C102.532 19.0142 103.069 19.1158 103.599 19.2465C104.118 19.3652 104.589 19.6383 104.953 20.0307C105.147 20.2468 105.298 20.4998 105.395 20.775C105.492 21.0503 105.535 21.3423 105.52 21.6342C105.53 22.0388 105.436 22.4391 105.247 22.7961C105.059 23.153 104.782 23.4544 104.444 23.6708C103.579 24.2322 102.567 24.5139 101.54 24.4784Z" fill="black"/>
<path d="M117.747 23.8934C117.754 23.9349 117.752 23.9774 117.742 24.0183C117.732 24.0592 117.715 24.0976 117.69 24.1314C117.665 24.1652 117.634 24.1937 117.598 24.2151C117.562 24.2365 117.522 24.2505 117.481 24.2562C117.059 24.3957 116.618 24.4707 116.174 24.4786C115.734 24.5247 115.29 24.4551 114.885 24.2767C114.48 24.0984 114.127 23.8171 113.86 23.4603C113.043 24.1711 111.986 24.5358 110.91 24.4786C110.41 24.5019 109.911 24.4192 109.445 24.2357C108.979 24.0523 108.556 23.7722 108.203 23.4135C107.853 23.0376 107.581 22.594 107.404 22.1093C107.227 21.6246 107.149 21.1088 107.173 20.5927V16.0162C107.173 15.7938 107.278 15.6768 107.497 15.6768H109.441C109.661 15.6768 109.765 15.7938 109.765 16.0162V20.2415C109.744 20.768 109.922 21.2828 110.262 21.6812C110.432 21.8637 110.639 22.0073 110.869 22.1022C111.098 22.1971 111.345 22.2411 111.593 22.2313C111.846 22.2426 112.1 22.2028 112.338 22.1144C112.576 22.026 112.795 21.8907 112.981 21.7163C113.157 21.5325 113.294 21.3141 113.384 21.0745C113.474 20.8349 113.514 20.5793 113.502 20.3235V16.0162C113.502 15.7938 113.606 15.6768 113.826 15.6768H115.792C116.012 15.6768 116.116 15.7938 116.116 16.0162V21.529C116.116 21.9855 116.313 22.2079 116.695 22.2079C116.874 22.2149 117.053 22.1952 117.227 22.1494C117.27 22.137 117.316 22.1348 117.361 22.1429C117.406 22.151 117.448 22.1693 117.485 22.1963C117.522 22.2233 117.552 22.2584 117.573 22.2989C117.595 22.3395 117.607 22.3844 117.609 22.4303L117.747 23.8934Z" fill="black"/>
<path d="M136.13 23.8938C136.14 23.9357 136.141 23.9794 136.133 24.0218C136.124 24.0641 136.107 24.1041 136.081 24.1388C136.056 24.1735 136.023 24.202 135.986 24.2224C135.948 24.2428 135.906 24.2545 135.864 24.2567C135.434 24.3982 134.985 24.4731 134.533 24.4791C133.845 24.515 133.165 24.3172 132.601 23.9172C132.357 23.7459 132.159 23.5163 132.024 23.2489C131.889 22.9814 131.821 22.6843 131.826 22.3839V19.6334C131.851 19.1085 131.677 18.5939 131.34 18.1937C131.178 18.0108 130.978 17.8665 130.754 17.7714C130.53 17.6763 130.287 17.6326 130.045 17.6436C129.826 17.6352 129.608 17.6772 129.408 17.7664C129.207 17.8557 129.03 17.9897 128.888 18.1586C128.582 18.5508 128.426 19.0409 128.448 19.5397V23.8587C128.448 24.0811 128.344 24.1982 128.124 24.1982H126.169C126.124 24.2038 126.078 24.199 126.034 24.1839C125.991 24.1689 125.952 24.1441 125.919 24.1113C125.887 24.0786 125.863 24.0388 125.848 23.9951C125.833 23.9513 125.828 23.9047 125.834 23.8587V19.6334C125.859 19.1142 125.699 18.6033 125.382 18.1937C125.241 18.0217 125.065 17.8832 124.865 17.7881C124.665 17.693 124.447 17.6437 124.226 17.6436C123.99 17.6339 123.754 17.6748 123.535 17.7636C123.316 17.8523 123.117 17.9869 122.953 18.1586C122.622 18.5383 122.452 19.0342 122.479 19.5397V23.8587C122.484 23.9047 122.48 23.9513 122.465 23.9951C122.45 24.0388 122.425 24.0786 122.393 24.1113C122.361 24.1441 122.321 24.1689 122.278 24.1839C122.235 24.199 122.189 24.2038 122.143 24.1982H120.257C120.038 24.1982 119.934 24.0811 119.934 23.8587V18.3459C119.947 18.252 119.939 18.1562 119.909 18.0661C119.88 17.976 119.83 17.8942 119.764 17.8271C119.697 17.76 119.617 17.7095 119.527 17.6797C119.438 17.6499 119.344 17.6415 119.251 17.6553H118.869C118.615 17.6553 118.487 17.5617 118.487 17.3744V15.9932C118.481 15.9078 118.505 15.8228 118.553 15.7525C118.601 15.6822 118.672 15.6309 118.754 15.607C119.154 15.4598 119.577 15.3884 120.003 15.3963C120.412 15.3611 120.822 15.4435 121.186 15.634C121.551 15.8246 121.854 16.1155 122.062 16.4731C122.452 16.0989 122.915 15.8101 123.42 15.6248C123.926 15.4395 124.464 15.3617 125.001 15.3963C125.522 15.3706 126.042 15.4695 126.518 15.685C126.995 15.9006 127.414 16.2267 127.742 16.637C128.125 16.216 128.596 15.8863 129.12 15.6717C129.644 15.4572 130.209 15.3631 130.774 15.3963C131.278 15.3724 131.783 15.4547 132.255 15.638C132.727 15.8214 133.156 16.1017 133.515 16.4614C133.867 16.8365 134.139 17.28 134.316 17.7649C134.493 18.2498 134.571 18.766 134.545 19.2822V21.5412C134.545 21.986 134.742 22.2084 135.112 22.2084C135.291 22.2168 135.471 22.1971 135.644 22.1499C135.883 22.1499 136.01 22.2435 136.026 22.4308L136.13 23.8938Z" fill="black"/>
<path d="M0.474322 14.1549C1.32783 10.6841 3.30455 7.60197 6.08972 5.39929C8.87489 3.1966 12.3084 2 15.8435 2C19.3786 2 22.8121 3.1966 25.5973 5.39929C28.3825 7.60197 30.3592 10.6841 31.2127 14.1549H29.8244C27.4825 14.12 25.1886 14.8281 23.2649 16.1798C23.1539 16.2611 23.038 16.3354 22.9178 16.4022H22.7559C22.6357 16.3354 22.5198 16.2611 22.4088 16.1798C20.468 14.8594 18.1823 14.1542 15.8435 14.1542C13.5047 14.1542 11.219 14.8594 9.2782 16.1798C9.16717 16.2611 9.05126 16.3354 8.93113 16.4022H8.76917C8.64904 16.3354 8.53313 16.2611 8.42211 16.1798C6.49836 14.8281 4.20448 14.12 1.86258 14.1549H0.474322ZM27.3256 21.4937C28.0382 20.9321 28.9215 20.6384 29.8244 20.6626H31.687V16.9055H29.8244C28.234 16.886 26.6799 17.3868 25.3936 18.3334C24.6697 18.8733 23.794 19.1646 22.8947 19.1646C21.9954 19.1646 21.1197 18.8733 20.3958 18.3334C19.0769 17.4045 17.5084 16.9065 15.9013 16.9065C14.2943 16.9065 12.7258 17.4045 11.4069 18.3334C10.683 18.8733 9.80731 19.1646 8.90799 19.1646C8.00868 19.1646 7.13299 18.8733 6.40913 18.3334C5.10694 17.3747 3.53057 16.8732 1.92042 16.9055H0V20.6626H1.86258C2.76554 20.6384 3.64879 20.9321 4.36145 21.4937C5.67799 22.4232 7.24474 22.9216 8.85015 22.9216C10.4556 22.9216 12.0223 22.4232 13.3389 21.4937C14.0524 20.9339 14.935 20.6403 15.8377 20.6626C16.741 20.6364 17.6249 20.9304 18.3366 21.4937C19.6555 22.4226 21.224 22.9205 22.8311 22.9205C24.4381 22.9205 26.0066 22.4226 27.3256 21.4937ZM27.3256 28.2121C28.0382 27.6506 28.9215 27.3568 29.8244 27.3811H31.687V23.6239H29.8244C28.234 23.6044 26.6799 24.1053 25.3936 25.0518C24.6697 25.5918 23.794 25.883 22.8947 25.883C21.9954 25.883 21.1197 25.5918 20.3958 25.0518C19.0769 24.1229 17.5084 23.625 15.9013 23.625C14.2943 23.625 12.7258 24.1229 11.4069 25.0518C10.683 25.5918 9.80731 25.883 8.90799 25.883C8.00868 25.883 7.13299 25.5918 6.40913 25.0518C5.10694 24.0932 3.53057 23.5917 1.92042 23.6239H0V27.3811H1.86258C2.76554 27.3568 3.64879 27.6506 4.36145 28.2121C5.67799 29.1416 7.24474 29.64 8.85015 29.64C10.4556 29.64 12.0223 29.1416 13.3389 28.2121C14.0524 27.6523 14.935 27.3588 15.8377 27.3811C16.741 27.3549 17.6249 27.6488 18.3366 28.2121C19.6555 29.141 21.224 29.639 22.8311 29.639C24.4381 29.639 26.0066 29.141 27.3256 28.2121Z" fill="black"/>
</svg>
